<mxfile host="app.diagrams.net" modified="2021-03-12T08:53:17.717Z" agent="5.0 (Windows NT 10.0; Win64; x64) AppleWebKit/537.36 (KHTML, like Gecko) Chrome/89.0.4389.72 Safari/537.36" etag="pSnyYkFWJwdHXcp0C8yd" version="14.4.7" type="github">
  <diagram id="85vXKNGcms0L2Pwtx8GZ" name="Page-1">
    <mxGraphModel dx="782" dy="1125" grid="1" gridSize="10" guides="1" tooltips="1" connect="1" arrows="1" fold="1" page="1" pageScale="1" pageWidth="850" pageHeight="1100" math="0" shadow="0">
      <root>
        <mxCell id="0" />
        <mxCell id="1" parent="0" />
        <mxCell id="aTkRbYCf0-R2V6yBySzp-3" style="edgeStyle=orthogonalEdgeStyle;rounded=0;orthogonalLoop=1;jettySize=auto;html=1;" edge="1" parent="1" source="aTkRbYCf0-R2V6yBySzp-1" target="aTkRbYCf0-R2V6yBySzp-2">
          <mxGeometry relative="1" as="geometry" />
        </mxCell>
        <mxCell id="aTkRbYCf0-R2V6yBySzp-1" value="go to the url" style="rounded=0;whiteSpace=wrap;html=1;" vertex="1" parent="1">
          <mxGeometry x="320" y="300" width="120" height="60" as="geometry" />
        </mxCell>
        <mxCell id="aTkRbYCf0-R2V6yBySzp-2" value="website should be loaded&lt;br&gt;" style="rounded=0;whiteSpace=wrap;html=1;" vertex="1" parent="1">
          <mxGeometry x="320" y="410" width="120" height="60" as="geometry" />
        </mxCell>
      </root>
    </mxGraphModel>
  </diagram>
</mxfile>
